<?xml version="1.0" ?><!DOCTYPE svg  PUBLIC '-//W3C//DTD SVG 1.1//EN'  'http://www.w3.org/Graphics/SVG/1.1/DTD/svg11.dtd'><svg height="124px" style="enable-background:new 0 0 135 124;" version="1.1" viewBox="0 0 135 124" width="135px" xml:space="preserve" xmlns="http://www.w3.org/2000/svg" xmlns:xlink="http://www.w3.org/1999/xlink"><style type="text/css">
<![CDATA[
	.st0{fill:#EF3E42;}
	.st1{fill:#FFFFFF;}
	.st2{fill:none;}
	.st3{fill-rule:evenodd;clip-rule:evenodd;fill:#FFFFFF;}
]]>
</style><defs/><path d="M119.9,29.6H18.1v68.3h101.8V29.6L119.9,29.6L119.9,29.6z M124.2,25.3v76.8H13.8V25.3H124.2L124.2,25.3L124.2,25.3z   M24.2,47.3c0-4.3,3.5-7.9,7.9-7.9c4.3,0,7.9,3.5,7.9,7.9c0,4.3-3.5,7.9-7.9,7.9C27.7,55.1,24.2,51.6,24.2,47.3L24.2,47.3L24.2,47.3  z M81.2,61.4l7.6-13.8l25,45.2H24.2l25-45.2l7.6,13.8l12.2-22L81.2,61.4L81.2,61.4L81.2,61.4z"/><rect class="st2" height="124" id="_x3C_Slice_x3E__100_" width="135"/></svg>